<svg viewBox="0 0 42 42" fill="none" xmlns="http://www.w3.org/2000/svg">
<path d="M30.9893 31.9987V36.0019H32.9971V33.9937H36.9997V30.0037H34.9919V31.9987H30.9893Z" fill="currentColor"/>
<path d="M32.9966 36.0019H34.9913V40.005H32.9966V36.0019Z" fill="currentColor"/>
<path d="M32.9966 27.9956H34.9913V30.0037H32.9966V27.9956Z" fill="currentColor"/>
<path d="M30.9893 26.0006H32.9971V27.9956H30.9893V26.0006Z" fill="currentColor"/>
<path d="M28.9946 40.005H32.9972V42H28.9946V40.005Z" fill="currentColor"/>
<path d="M28.9946 24.0056H30.9894V26.0006H28.9946V24.0056Z" fill="currentColor"/>
<path d="M28.9946 5.99812H30.9894V17.9944H28.9946V5.99812Z" fill="currentColor"/>
<path d="M27 36.0019H28.9947V40.005H27V36.0019Z" fill="currentColor"/>
<path d="M27 21.9975H28.9947V24.0056H27V21.9975Z" fill="currentColor"/>
<path d="M27 4.00312H28.9947V5.99812H27V4.00312Z" fill="currentColor"/>
<path d="M24.9922 33.9937H27.0001V36.0019H24.9922V33.9937Z" fill="currentColor"/>
<path d="M24.9922 20.0025H27.0001V21.9975H24.9922V20.0025Z" fill="currentColor"/>
<path d="M24.9922 8.00625H27.0001V15.9994H24.9922V8.00625Z" fill="currentColor"/>
<path d="M24.9922 1.995H27.0001V4.00312H24.9922V1.995Z" fill="currentColor"/>
<path d="M22.9976 5.99812H24.9923V8.00625H22.9976V5.99812Z" fill="currentColor"/>
<path d="M22.9972 20.0025H24.9919V17.9944H22.9972V15.9994H21.0024V40.005H22.9972V37.9969H24.9919V36.0019H22.9972V20.0025Z" fill="currentColor"/>
<path d="M18.9943 15.9994V14.0044H22.9969V10.0012H21.0022V8.00625H16.9996V10.0012H14.9917V14.0044H16.9996V15.9994H18.9943Z" fill="currentColor"/>
<path d="M14.9917 4.00312H22.9969V5.99812H14.9917V4.00312Z" fill="currentColor"/>
<path d="M12.9976 21.9975H18.9949V24.0056H12.9976V21.9975Z" fill="currentColor"/>
<path d="M14.9917 17.9944H18.9943V20.0025H14.9917V17.9944Z" fill="currentColor"/>
<path d="M12.9976 0H24.9923V1.995H12.9976V0Z" fill="currentColor"/>
<path d="M12.9976 15.9994H14.9923V17.9944H12.9976V15.9994Z" fill="currentColor"/>
<path d="M12.9976 5.99812H14.9923V8.00625H12.9976V5.99812Z" fill="currentColor"/>
<path d="M11.0029 20.0025H12.9977V21.9975H11.0029V20.0025Z" fill="currentColor"/>
<path d="M11.0029 8.00625H12.9977V15.9994H11.0029V8.00625Z" fill="currentColor"/>
<path d="M11.0029 1.995H12.9977V4.00312H11.0029V1.995Z" fill="currentColor"/>
<path d="M8.99463 17.9944H11.0025V20.0025H8.99463V17.9944Z" fill="currentColor"/>
<path d="M8.99463 4.00312H11.0025V5.99812H8.99463V4.00312Z" fill="currentColor"/>
<path d="M7 5.99812H8.99474V17.9944H7V5.99812Z" fill="currentColor"/>
</svg>
