<svg viewBox="0 0 42 42" fill="none" xmlns="http://www.w3.org/2000/svg">
<path d="M40.005 10.0069H2.00812V4.00829H0V38.0048H2.00812V12.0021H40.005V38.0048H42V4.00829H40.005V10.0069Z" fill="currentColor"/>
<path d="M2.00781 38.0048H40.0047V40H2.00781V38.0048Z" fill="currentColor"/>
<path d="M34.0073 26.0076H36.0023V32.0062H34.0073V26.0076Z" fill="currentColor"/>
<path d="M31.9985 32.0062H34.0067V34.0014H31.9985V32.0062Z" fill="currentColor"/>
<path d="M31.9985 23.9993H34.0067V26.0076H31.9985V23.9993Z" fill="currentColor"/>
<path d="M26.0005 34.0014H31.9986V36.0097H26.0005V34.0014Z" fill="currentColor"/>
<path d="M31.9987 23.9993V22.0041H30.0037V14.0104H5.99805V26.0076H10.0012V23.9993H8.00617V16.0055H28.0087V22.0041H26.0005V23.9993H31.9987Z" fill="currentColor"/>
<path d="M24.0054 32.0062H26.0004V34.0014H24.0054V32.0062Z" fill="currentColor"/>
<path d="M24.0054 23.9993H26.0004V26.0076H24.0054V23.9993Z" fill="currentColor"/>
<path d="M21.9976 26.0076H24.0057V32.0062H21.9976V26.0076Z" fill="currentColor"/>
<path d="M11.9961 6.00346H14.0042V7.99862H11.9961V6.00346Z" fill="currentColor"/>
<path d="M8.00617 28.0028V30.0111H5.99805V32.0062H20.0024V26.0076H18.0074V23.9993H15.9993V22.0042H14.0043V23.9993H11.9962V26.0076H10.0012V28.0028H8.00617Z" fill="currentColor"/>
<path d="M8.00586 6.00346H10.0009V7.99862H8.00586V6.00346Z" fill="currentColor"/>
<path d="M4.00342 6.00346H5.99842V7.99862H4.00342V6.00346Z" fill="currentColor"/>
<path d="M2.00781 2H40.0047V4.00829H2.00781V2Z" fill="currentColor"/>
</svg>
