<svg viewBox="0 0 21 21" fill="none" xmlns="http://www.w3.org/2000/svg">
<path d="M8.5 1.5H4.5L3.5 2.5V4.5L2.5 5.5V7.5L1.5 8.5V11.5L0.5 12.5V15.5L3.5 18.5H6.5L9.5 15.5V11.5L10.5 10.5L11.5 11.5V15.5L14.5 18.5H17.5L20.5 15.5V12.5L19.5 11.5V8.5L18.5 7.5V5.5L17.5 4.5V2.5L16.5 1.5H12.5L11.5 2.5V4.5H9.5V2.5L8.5 1.5Z" fill="white"/>
<path d="M19.9961 11.9982H21.0002V15.9945H19.9961V11.9982Z" fill="black"/>
<path d="M18.998 15.9945H19.9955V16.9985H18.998V15.9945Z" fill="black"/>
<path d="M18.001 9.99672V11.0007H18.9985V11.9982H19.996V7.99526H18.9985V9.99672H18.001Z" fill="black"/>
<path d="M18.001 16.9985H18.9985V17.996H18.001V16.9985Z" fill="black"/>
<path d="M18.001 4.99636H18.9985V7.99526H18.001V4.99636Z" fill="black"/>
<path d="M18.0006 11.0007H13.9975V11.9982H16.9966V12.9956H15.9991V13.9996H14.995V14.9971H13.9975V11.9982H13V15.9945H13.9975V16.9985H18.0006V15.9945H18.9981V11.9982H18.0006V11.0007Z" fill="black"/>
<path d="M16.9966 1.99745H18.0006V4.99635H16.9966V1.99745Z" fill="black"/>
<path d="M13.998 17.996H18.0012V19H13.998V17.996Z" fill="black"/>
<path d="M13.998 8.99927H18.0012V9.99672H13.998V8.99927Z" fill="black"/>
<path d="M13 16.9985H13.9975V17.996H13V16.9985Z" fill="black"/>
<path d="M13 9.99672H13.9975V11.0007H13V9.99672Z" fill="black"/>
<path d="M11.9961 1H16.9967V1.99745H11.9961V1Z" fill="black"/>
<path d="M11.9961 15.9945H13.0002V16.9985H11.9961V15.9945Z" fill="black"/>
<path d="M11.996 11.9982H13.0001V11.0007H10.9985V15.9945H11.996V11.9982Z" fill="black"/>
<path d="M13.0006 6.99781H11.9966V6.00037H8.9975V6.99781H8V7.99526H8.9975V8.99927H11.9966V7.99526H13.0006V6.99781Z" fill="black"/>
<path d="M10.0015 9.99672H10.999V11.0007H10.0015V9.99672Z" fill="black"/>
<path d="M8.99756 4.99635H11.9966V1.99745H10.9991V3.99891H10.0016V1.99745H8.99756V4.99635Z" fill="black"/>
<path d="M8 15.9945H8.9975V16.9985H8V15.9945Z" fill="black"/>
<path d="M8 11.9982H8.9975V15.9945H10.0016V11.0007H8V11.9982Z" fill="black"/>
<path d="M6.99609 16.9985H8.00016V17.996H6.99609V16.9985Z" fill="black"/>
<path d="M6.99609 9.99672H8.00016V11.0007H6.99609V9.99672Z" fill="black"/>
<path d="M6.99602 11.0007H2.99945V11.9982H5.99852V12.9956H5.00102V13.9996H3.99695V14.9971H2.99945V11.9982H2.00195V15.9945H2.99945V16.9985H6.99602V15.9945H8.00008V11.9982H6.99602V11.0007Z" fill="black"/>
<path d="M2.99902 17.996H6.99559V19H2.99902V17.996Z" fill="black"/>
<path d="M3.99609 1H8.99672V1.99745H3.99609V1Z" fill="black"/>
<path d="M2.99902 8.99927H6.99559V9.99672H2.99902V8.99927Z" fill="black"/>
<path d="M2.99902 1.99745H3.99652V4.99635H2.99902V1.99745Z" fill="black"/>
<path d="M2.00195 16.9985H2.99945V17.996H2.00195V16.9985Z" fill="black"/>
<path d="M2.00195 4.99636H2.99945V7.99526H2.00195V4.99636Z" fill="black"/>
<path d="M0.997559 15.9945H2.00162V16.9985H0.997559V15.9945Z" fill="black"/>
<path d="M2.00162 11.0007H2.99912V9.99672H2.00162V7.99526H0.997559V11.9982H2.00162V11.0007Z" fill="black"/>
<path d="M0 11.9982H0.9975V15.9945H0V11.9982Z" fill="black"/>
</svg>
