<svg viewBox="0 0 42 42" fill="none" xmlns="http://www.w3.org/2000/svg">
<path d="M37.9922 18.0075H40.0001V26.0006H37.9922V18.0075Z" fill="currentColor"/>
<path d="M35.9971 26.0006H37.9918V32.0119H35.9971V26.0006Z" fill="currentColor"/>
<path d="M35.9971 15.9994H37.9918V18.0075H35.9971V15.9994Z" fill="currentColor"/>
<path d="M34.003 36.0019H15.9977V32.0119H14.003V36.0019H11.9951V42H37.9925V36.0019H35.9977V32.0119H34.003V36.0019ZM34.003 40.005H30.0004V38.01H34.003V40.005Z" fill="currentColor"/>
<path d="M34.0029 14.0044H35.9977V15.9994H34.0029V14.0044Z" fill="currentColor"/>
<path d="M31.9941 18.0075H34.002V22.0106H31.9941V18.0075Z" fill="currentColor"/>
<path d="M25.9971 18.0075H28.0049V22.0106H25.9971V18.0075Z" fill="currentColor"/>
<path d="M20 18.0075H21.9948V22.0106H20V18.0075Z" fill="currentColor"/>
<path d="M20 14.0044H34.0026V12.0094H21.9947V2.00813H20V14.0044Z" fill="currentColor"/>
<path d="M15.998 0H20.0007V2.00812H15.998V0Z" fill="currentColor"/>
<path d="M11.9951 28.0088H14.003V32.0119H11.9951V28.0088Z" fill="currentColor"/>
<path d="M14.003 20.0025V24.0056H15.9977V2.00813H14.003V18.0075H11.9951V20.0025H14.003Z" fill="currentColor"/>
<path d="M10 26.0006H11.9948V28.0088H10V26.0006Z" fill="currentColor"/>
<path d="M10 15.9994H11.9948V18.0075H10V15.9994Z" fill="currentColor"/>
<path d="M9.9997 6.01125H11.9944V0H5.99707V2.00812H8.00494V4.00313H9.9997V6.01125Z" fill="currentColor"/>
<path d="M8.00488 24.0056H9.99963V26.0006H8.00488V24.0056Z" fill="currentColor"/>
<path d="M5.99707 14.0044H9.9997V15.9994H5.99707V14.0044Z" fill="currentColor"/>
<path d="M5.99707 22.0106H8.00494V24.0056H5.99707V22.0106Z" fill="currentColor"/>
<path d="M5.99707 4.00313H8.00494V6.01125H5.99707V4.00313Z" fill="currentColor"/>
<path d="M4.00293 15.9994H5.99768V22.0106H4.00293V15.9994Z" fill="currentColor"/>
<path d="M5.99737 10.0013H4.00262V8.00625H2.00787V6.01125H0V12.0094H5.99737V10.0013Z" fill="currentColor"/>
<path d="M4.00293 6.01125H5.99768V8.00625H4.00293V6.01125Z" fill="currentColor"/>
</svg>
