<svg viewBox="0 0 42 42" fill="none" xmlns="http://www.w3.org/2000/svg">
<path d="M40.0054 34.0069H42.0004V40.005H40.0054V34.0069Z" fill="currentColor"/>
<path d="M40.0054 18.0075H42.0004V24.0056H40.0054V18.0075Z" fill="currentColor"/>
<path d="M40.0054 2.00813H42.0004V8.00625H40.0054V2.00813Z" fill="currentColor"/>
<path d="M37.9966 24.0056H40.0047V26.0006H37.9966V24.0056Z" fill="currentColor"/>
<path d="M37.9966 15.9994H40.0047V18.0075H37.9966V15.9994Z" fill="currentColor"/>
<path d="M34.0073 0H40.0054V2.00812H34.0073V0Z" fill="currentColor"/>
<path d="M34.0073 40.005H40.0054V42H34.0073V40.005Z" fill="currentColor"/>
<path d="M36.002 26.0006H37.997V28.0088H36.002V26.0006Z" fill="currentColor"/>
<path d="M36.002 14.0044H37.997V15.9994H36.002V14.0044Z" fill="currentColor"/>
<path d="M31.9985 28.0088H36.0017V30.0038H31.9985V28.0088Z" fill="currentColor"/>
<path d="M31.9985 12.0094H36.0017V14.0044H31.9985V12.0094Z" fill="currentColor"/>
<path d="M28.0083 30.0038H31.9983V31.9988H28.0083V30.0038Z" fill="currentColor"/>
<path d="M28.0083 10.0013H31.9983V12.0094H28.0083V10.0013Z" fill="currentColor"/>
<path d="M28.0091 15.9994H26.001V14.0044H24.006V12.0094H18.0079V14.0044H15.9998V15.9994H14.0048V18.0075H12.0098V24.0056H14.0048V26.0006H15.9998V28.0088H18.0079V30.0038H24.006V28.0088H26.001V26.0006H28.0091V24.0056H30.0041V18.0075H28.0091V15.9994ZM24.006 22.0106H21.9979V24.0056H20.0029V22.0106H18.0079V20.0025H20.0029V18.0075H21.9979V20.0025H24.006V22.0106Z" fill="currentColor"/>
<path d="M14.0044 31.9987H28.0088V34.0069H14.0044V31.9987Z" fill="currentColor"/>
<path d="M14.0044 8.00625H28.0088V10.0012H14.0044V8.00625Z" fill="currentColor"/>
<path d="M10.0015 30.0038H14.0046V31.9988H10.0015V30.0038Z" fill="currentColor"/>
<path d="M10.0015 10.0013H14.0046V12.0094H10.0015V10.0013Z" fill="currentColor"/>
<path d="M5.99805 28.0088H10.0012V30.0038H5.99805V28.0088Z" fill="currentColor"/>
<path d="M5.99805 12.0094H10.0012V14.0044H5.99805V12.0094Z" fill="currentColor"/>
<path d="M2.00781 40.005H8.00594V42H2.00781V40.005Z" fill="currentColor"/>
<path d="M4.00342 26.0006H5.99842V28.0088H4.00342V26.0006Z" fill="currentColor"/>
<path d="M4.00342 14.0044H5.99842V15.9994H4.00342V14.0044Z" fill="currentColor"/>
<path d="M2.00781 0H8.00594V2.00812H2.00781V0Z" fill="currentColor"/>
<path d="M2.00781 24.0056H4.00281V26.0006H2.00781V24.0056Z" fill="currentColor"/>
<path d="M2.00781 15.9994H4.00281V18.0075H2.00781V15.9994Z" fill="currentColor"/>
<path d="M0 34.0069H2.00812V40.005H0V34.0069Z" fill="currentColor"/>
<path d="M0 18.0075H2.00812V24.0056H0V18.0075Z" fill="currentColor"/>
<path d="M0 2.00813H2.00812V8.00625H0V2.00813Z" fill="currentColor"/>
</svg>
