<svg viewBox="0 0 42 42" fill="none" xmlns="http://www.w3.org/2000/svg">
<path d="M39 1H25L23 3V5L25 7H29V9L23 15V17L25 19H27L33 13H35V17L37 19H39L41 17V3L39 1Z" fill="white"/>
<path d="M3 41H17L19 39L19 37L17 35H13V33L19 27V25L17 23H15L9 29H7V25L5 23H3L1 25L1 39L3 41Z" fill="white"/>
<path d="M1 3L1 17L3 19H5L7 17V13H9L15 19H17L19 17V15L13 9V7H17L19 5V3L17 1L3 1L1 3Z" fill="white"/>
<path d="M41 39V25L39 23H37L35 25V29H33L27 23H25L23 25V27L29 33V35L25 35L23 37V39L25 41L39 41L41 39Z" fill="white"/>
<path d="M39.9917 24.0056H41.9998V40.005H39.9917V24.0056Z" fill="black"/>
<path d="M39.9917 1.995H41.9998V17.9944H39.9917V1.995Z" fill="black"/>
<path d="M35.9883 21.9975H39.9914V24.0056H35.9883V21.9975Z" fill="black"/>
<path d="M23.9917 40.005H39.9909V42H23.9917V40.005Z" fill="black"/>
<path d="M35.9883 17.9944H39.9914V20.0025H35.9883V17.9944Z" fill="black"/>
<path d="M35.988 10.0013H33.993V11.9963H31.998V14.0044H33.993V17.9944H35.988V10.0013Z" fill="black"/>
<path d="M33.993 30.0037V31.9987H35.988V24.0056H33.993V27.9956H31.998V30.0037H33.993Z" fill="black"/>
<path d="M29.9902 26.0006H31.9983V27.9956H29.9902V26.0006Z" fill="black"/>
<path d="M29.9902 14.0044H31.9983V15.9994H29.9902V14.0044Z" fill="black"/>
<path d="M27.9956 24.0056H29.9906V26.0006H27.9956V24.0056Z" fill="black"/>
<path d="M27.9956 15.9994H29.9906V17.9944H27.9956V15.9994Z" fill="black"/>
<path d="M29.9898 7.99313H31.9979V5.99813H23.9917V7.99313H27.9948V10.0013H29.9898V7.99313Z" fill="black"/>
<path d="M31.9979 36.0019V33.9937H29.9898V31.9987H27.9948V33.9937H23.9917V36.0019H31.9979Z" fill="black"/>
<path d="M25.9878 30.0038H27.9959V31.9988H25.9878V30.0038Z" fill="black"/>
<path d="M23.9917 21.9975H27.9948V24.0056H23.9917V21.9975Z" fill="black"/>
<path d="M25.9878 10.0013H27.9959V11.9963H25.9878V10.0013Z" fill="black"/>
<path d="M23.9917 0H39.9909V1.995H23.9917V0Z" fill="black"/>
<path d="M23.9925 27.9956V24.0056H21.9976V30.0037H25.9875V27.9956H23.9925Z" fill="black"/>
<path d="M23.9917 17.9944H27.9948V20.0025H23.9917V17.9944Z" fill="black"/>
<path d="M23.9917 11.9962H25.9867V14.0044H23.9917V11.9962Z" fill="black"/>
<path d="M21.9976 36.0019H23.9925V40.005H21.9976V36.0019Z" fill="black"/>
<path d="M21.9976 14.0044H23.9925V17.9944H21.9976V14.0044Z" fill="black"/>
<path d="M21.9976 1.995H23.9925V5.99812H21.9976V1.995Z" fill="black"/>
<path d="M17.9941 36.0019H19.9891V40.005H17.9941V36.0019Z" fill="black"/>
<path d="M17.9941 24.0056H19.9891V27.9956H17.9941V24.0056Z" fill="black"/>
<path d="M17.9941 14.0044H19.9891V17.9944H17.9941V14.0044Z" fill="black"/>
<path d="M17.9941 1.995H19.9891V5.99812H17.9941V1.995Z" fill="black"/>
<path d="M15.9995 27.9956H17.9945V30.0038H15.9995V27.9956Z" fill="black"/>
<path d="M13.9917 21.9975H17.9948V24.0056H13.9917V21.9975Z" fill="black"/>
<path d="M15.9995 11.9962H17.9945V14.0044H15.9995V11.9962Z" fill="black"/>
<path d="M1.99463 40.005H17.9939V42H1.99463V40.005Z" fill="black"/>
<path d="M13.9917 30.0038H15.9998V31.9988H13.9917V30.0038Z" fill="black"/>
<path d="M13.9917 17.9944H17.9948V20.0025H13.9917V17.9944Z" fill="black"/>
<path d="M13.9917 10.0013H15.9998V11.9963H13.9917V10.0013Z" fill="black"/>
<path d="M9.98828 5.99813V7.99313H11.9964V10.0013H13.9914V7.99313H17.9945V5.99813H9.98828Z" fill="black"/>
<path d="M11.9964 33.9937H9.98828V36.0019H17.9945V33.9937H13.9914V31.9987H11.9964V33.9937Z" fill="black"/>
<path d="M11.9961 24.0056H13.9911V26.0006H11.9961V24.0056Z" fill="black"/>
<path d="M11.9961 15.9994H13.9911V17.9944H11.9961V15.9994Z" fill="black"/>
<path d="M9.98828 26.0006H11.9964V27.9956H9.98828V26.0006Z" fill="black"/>
<path d="M9.98828 14.0044H11.9964V15.9994H9.98828V14.0044Z" fill="black"/>
<path d="M7.99303 11.9963V10.0013H5.99805V17.9944H7.99303V14.0044H9.98801V11.9963H7.99303Z" fill="black"/>
<path d="M5.99805 31.9987H7.99303V30.0037H9.98801V27.9956H7.99303V24.0056H5.99805V31.9987Z" fill="black"/>
<path d="M1.99463 21.9975H5.99772V24.0056H1.99463V21.9975Z" fill="black"/>
<path d="M1.99463 0H17.9939V1.995H1.99463V0Z" fill="black"/>
<path d="M1.99463 17.9944H5.99772V20.0025H1.99463V17.9944Z" fill="black"/>
<path d="M0 24.0056H1.99498V40.005H0V24.0056Z" fill="black"/>
<path d="M0 1.995H1.99498V17.9944H0V1.995Z" fill="black"/>
</svg>
