<svg viewBox="0 0 21 21" fill="none" xmlns="http://www.w3.org/2000/svg">
<path d="M7.5 0.5H3.5V1.5L5.5 3.5V5.5H3.5V4.5H2.5V3.5H0.5V6.5L2.5 8.5H5.5L12.5 15.5V18.5L14.5 20.5H17.5V18.5H16.5V17.5H15.5V15.5H17.5L19.5 17.5H20.5V14.5L19.5 13.5L18.5 12.5H15.5V11.5H14.5V10.5H13.5V9.5H12.5V8.5H11.5V7.5H10.5V6.5H9.5V5.5H8.5V1.5H7.5V0.5Z" fill="white"/>
<path d="M20.0021 16.9969H18.998V18.0009H20.9996V13.9978H20.0021V16.9969Z" fill="black"/>
<path d="M18.998 13.0003H20.0021V13.9978H18.998V13.0003Z" fill="black"/>
<path d="M18.001 15.9994H18.9985V16.9969H18.001V15.9994Z" fill="black"/>
<path d="M15.0014 15.0019V18.0009H15.9989V18.9984H17.003V20.0025H14.0039V21H18.0005V18.0009H17.003V15.9994H18.0005V15.0019H15.0014Z" fill="black"/>
<path d="M13.0005 18.9984H14.0046V20.0025H13.0005V18.9984Z" fill="black"/>
<path d="M13.0005 13.0003H14.0046V13.9978H13.0005V13.0003Z" fill="black"/>
<path d="M12.0029 15.0019H13.0004V18.9984H12.0029V15.0019Z" fill="black"/>
<path d="M12.0029 11.9963H13.0004V13.0003H12.0029V11.9963Z" fill="black"/>
<path d="M10.999 13.9978H12.0031V15.0019H10.999V13.9978Z" fill="black"/>
<path d="M10.999 10.9988H12.0031V11.9963H10.999V10.9988Z" fill="black"/>
<path d="M10.001 13.0003H10.9985V13.9978H10.001V13.0003Z" fill="black"/>
<path d="M10.001 10.0012H10.9985V10.9987H10.001V10.0012Z" fill="black"/>
<path d="M9.00391 11.9963H10.0014V13.0003H9.00391V11.9963Z" fill="black"/>
<path d="M9.00391 8.99718H10.0014V10.0012H9.00391V8.99718Z" fill="black"/>
<path d="M7.99951 10.9988H9.00357V11.9963H7.99951V10.9988Z" fill="black"/>
<path d="M7.99951 7.99969H9.00357V8.99719H7.99951V7.99969Z" fill="black"/>
<path d="M7.00195 10.0012H7.99945V10.9987H7.00195V10.0012Z" fill="black"/>
<path d="M7.00195 7.00219H7.99945V7.99969H7.00195V7.00219Z" fill="black"/>
<path d="M6.00488 8.99718H7.00238V10.0012H6.00488V8.99718Z" fill="black"/>
<path d="M2.00195 7.99969H6.00508V8.99719H2.00195V7.99969Z" fill="black"/>
<path d="M4.00293 2.00156H5.00043V2.99906H4.00293V2.00156Z" fill="black"/>
<path d="M7.00215 0.9975V2.00156H7.99965V5.99813H9.00371V7.00219H10.0012V7.99969H10.9987V8.99719H12.0028V10.0012H13.0003V10.9988H14.0043V11.9963H15.0018V13.0003H18.9984V11.9963H15.9993V10.9988H15.0018V10.0012H14.0043V8.99719H13.0003V7.99969H12.0028V7.00219H10.9987V5.99813H10.0012V2.00156H9.00371V0.9975H7.99965V0H2.99902V2.00156H4.00309V0.9975H7.00215Z" fill="black"/>
<path d="M1.00391 7.00219H2.00141V7.99969H1.00391V7.00219Z" fill="black"/>
<path d="M1.00406 3.99656H2.00156V5.00062H2.99906V5.99812H6.00469V2.99906H5.00062V5.00062H4.00312V3.99656H2.99906V2.99906H0V7.00219H1.00406V3.99656Z" fill="black"/>
</svg>
