<svg viewBox="0 0 42 42" fill="none" xmlns="http://www.w3.org/2000/svg">
<path d="M21 1H13L11 3H9L3 9V11L1 13V21L3 23V25L9 31H11L13 33H21L23 31H27L35.5 37.5L39 37V33.5L36 31.5L35 29.5L31.5 28L31 23L33 21V13L31 11V9L25 3H23L21 1Z" fill="white"/>
<path d="M30 25.9974H28.0052V27.9921H25.9974V30H22.0078V31.9948H25.9974V33.9895H28.0052V35.9974H30V37.9921H31.9948V40H38.0053V37.9921H40.0001V31.9948H38.0053V30H35.9975V27.9921H34.0027V25.9974H31.9948V21.9948H30V25.9974ZM31.9948 30H34.0027V31.9948H35.9975V33.9895H38.0053V35.9974H35.9975V33.9895H34.0027V31.9948H31.9948V30Z" fill="black"/>
<path d="M31.9946 11.9948H34.0025V21.9948H31.9946V11.9948Z" fill="black"/>
<path d="M30.0005 7.99213H31.9953V11.9948H30.0005V7.99213Z" fill="black"/>
<path d="M28.0049 5.99738H29.9997V7.99213H28.0049V5.99738Z" fill="black"/>
<path d="M25.9976 4.00262H28.0055V5.99738H25.9976V4.00262Z" fill="black"/>
<path d="M8.00537 14.0026H25.9977V20H8.00537V14.0026Z" fill="black"/>
<path d="M22.0078 1.99475H25.9974V4.00262H22.0078V1.99475Z" fill="black"/>
<path d="M12.0083 31.9948H22.0084V33.9895H12.0083V31.9948Z" fill="black"/>
<path d="M12.0083 0H22.0084V1.99475H12.0083V0Z" fill="black"/>
<path d="M8.00537 30H12.008V31.9947H8.00537V30Z" fill="black"/>
<path d="M8.00537 1.99475H12.008V4.00262H8.00537V1.99475Z" fill="black"/>
<path d="M6.01074 27.9921H8.00551V30H6.01074V27.9921Z" fill="black"/>
<path d="M6.01074 4.00262H8.00551V5.99738H6.01074V4.00262Z" fill="black"/>
<path d="M4.00293 25.9974H6.01082V27.9921H4.00293V25.9974Z" fill="black"/>
<path d="M4.00293 5.99738H6.01082V7.99213H4.00293V5.99738Z" fill="black"/>
<path d="M2.00781 21.9948H4.00258V25.9974H2.00781V21.9948Z" fill="black"/>
<path d="M2.00781 7.99213H4.00258V11.9948H2.00781V7.99213Z" fill="black"/>
<path d="M0 11.9948H2.00789V21.9948H0V11.9948Z" fill="black"/>
</svg>
