<svg viewBox="0 0 42 42" fill="none" xmlns="http://www.w3.org/2000/svg">
<path d="M21 1H13L11 3H9L3 9V11L1 13V21L3 23V25L9 31H11L13 33H21L23 31H27L35.5 37.5L39 37V33.5L36 31.5L35 29.5L31.5 28L31 23L33 21V13L31 11V9L25 3H23L21 1Z" fill="white"/>
<path d="M30.0001 25.9974H28.0053V27.9921H25.9974V30H22.0078V31.9948H25.9974V33.9895H28.0053V35.9974H30.0001V37.9921H31.9948V40H38.0054V37.9921H40.0002V31.9948H38.0054V30H35.9975V27.9921H34.0027V25.9974H31.9948V21.9948H30.0001V25.9974ZM31.9948 30H34.0027V31.9948H35.9975V33.9895H38.0054V35.9974H35.9975V33.9895H34.0027V31.9948H31.9948V30Z" fill="black"/>
<path d="M31.9951 11.9948H34.003V21.9948H31.9951V11.9948Z" fill="black"/>
<path d="M30.0005 7.99213H31.9953V11.9948H30.0005V7.99213Z" fill="black"/>
<path d="M28.0049 5.99738H29.9997V7.99213H28.0049V5.99738Z" fill="black"/>
<path d="M25.9976 4.00262H28.0055V5.99737H25.9976V4.00262Z" fill="black"/>
<path d="M14.0023 25.9974H19.9998V20H25.9973V14.0026H19.9998V7.99213H14.0023V14.0026H8.00488V20H14.0023V25.9974Z" fill="black"/>
<path d="M22.0078 1.99475H25.9974V4.00263H22.0078V1.99475Z" fill="black"/>
<path d="M12.0083 31.9948H22.0085V33.9895H12.0083V31.9948Z" fill="black"/>
<path d="M12.0083 0H22.0085V1.99475H12.0083V0Z" fill="black"/>
<path d="M8.00488 30H12.0076V31.9948H8.00488V30Z" fill="black"/>
<path d="M8.00488 1.99475H12.0076V4.00263H8.00488V1.99475Z" fill="black"/>
<path d="M6.01074 27.9921H8.00552V30H6.01074V27.9921Z" fill="black"/>
<path d="M6.01074 4.00262H8.00552V5.99737H6.01074V4.00262Z" fill="black"/>
<path d="M4.00293 25.9974H6.01083V27.9921H4.00293V25.9974Z" fill="black"/>
<path d="M4.00293 5.99738H6.01083V7.99213H4.00293V5.99738Z" fill="black"/>
<path d="M2.00781 21.9948H4.00259V25.9974H2.00781V21.9948Z" fill="black"/>
<path d="M2.00781 7.99213H4.00259V11.9948H2.00781V7.99213Z" fill="black"/>
<path d="M0 11.9948H2.0079V21.9948H0V11.9948Z" fill="black"/>
</svg>
