<svg viewBox="0 0 42 42" fill="none" xmlns="http://www.w3.org/2000/svg">
<path d="M39.0044 31.0029H36.9956V28.9956H35V27.0015H32.9912V23H30.9956V27.0015H29V28.9956H26.9912V31.0029H23V32.9971H26.9912V34.9913H29V36.9985H30.9956V38.9927H32.9912V41H39.0044V38.9927H41V32.9971H39.0044V31.0029ZM39.0044 36.9985H36.9956V34.9913H35V32.9971H32.9912V31.0029H35V32.9971H36.9956V34.9913H39.0044V36.9985Z" fill="currentColor"/>
<path d="M33 13H35V23H33V13Z" fill="currentColor"/>
<path d="M31 9H33V13H31V9Z" fill="currentColor"/>
<path d="M29 7H31V9H29V7Z" fill="currentColor"/>
<path d="M27 5H29V7H27V5Z" fill="currentColor"/>
<path d="M25 17H27V23H25V17Z" fill="currentColor"/>
<path d="M25 15H11V16.9951H16.9963V31H19.0037V16.9951H25V15Z" fill="currentColor"/>
<path d="M23 3H27V5H23V3Z" fill="currentColor"/>
<path d="M16.9895 37V38.9934H13V41H23V38.9934H18.9974V37H16.9895Z" fill="currentColor"/>
<path d="M13 33H23V35H13V33Z" fill="currentColor"/>
<path d="M13 1H23V3H13V1Z" fill="currentColor"/>
<path d="M9 31H13V33H9V31Z" fill="currentColor"/>
<path d="M9 3H13V5H9V3Z" fill="currentColor"/>
<path d="M9 17H11V23H9V17Z" fill="currentColor"/>
<path d="M7 29H9V31H7V29Z" fill="currentColor"/>
<path d="M7 5H9V7H7V5Z" fill="currentColor"/>
<path d="M5 27H7V29H5V27Z" fill="currentColor"/>
<path d="M5 7H7V9H5V7Z" fill="currentColor"/>
<path d="M3 23H5V27H3V23Z" fill="currentColor"/>
<path d="M3 9H5V13H3V9Z" fill="currentColor"/>
<path d="M1 13H3V23H1V13Z" fill="currentColor"/>
</svg>
