<svg viewBox="0 0 42 42" fill="none" xmlns="http://www.w3.org/2000/svg">
<path d="M39.9922 14.0026H42.0003V25.9974H39.9922V14.0026Z" fill="currentColor"/>
<path d="M39.9922 2.00787H42.0003V6.0105H39.9922V2.00787Z" fill="currentColor"/>
<path d="M35.9883 12.0079H39.9914V14.0026H35.9883V12.0079Z" fill="currentColor"/>
<path d="M35.9883 25.9974H39.9914V28.0052H35.9883V25.9974Z" fill="currentColor"/>
<path d="M31.998 6.01051H39.9912V8.00526H31.998V6.01051Z" fill="currentColor"/>
<path d="M33.9941 24.0026H35.9891V25.9974H33.9941V24.0026Z" fill="currentColor"/>
<path d="M33.9941 14.0026H35.9891V15.9974H33.9941V14.0026Z" fill="currentColor"/>
<path d="M31.998 0H39.9912V2.00787H31.998V0Z" fill="currentColor"/>
<path d="M27.9961 2.00787V4.00262H29.9911V6.0105H31.9992V2.00787H27.9961Z" fill="currentColor"/>
<path d="M27.9961 31.9947H29.9911V24.0026H33.9942V15.9974H29.9911V14.0026H27.9961V31.9947ZM29.9911 18.0052H31.9992V22.0079H29.9911V18.0052Z" fill="currentColor"/>
<path d="M25.9883 4.00262H27.9964V6.01049H25.9883V4.00262Z" fill="currentColor"/>
<path d="M1.99414 31.9948V34.0026H11.9954V35.9974H13.9904V40H15.9985V35.9974H17.9935V34.0026H27.9948V31.9948H1.99414Z" fill="currentColor"/>
<path d="M23.9916 12.0079H21.9966V8.00526H19.9885V12.0079H17.9935V10H15.9985V12.0079H7.99227V10H5.99727V12.0079H3.98914V8.00526H1.99414V14.0026H27.9948V12.0079H25.9866V6.01051H23.9916V12.0079Z" fill="currentColor"/>
<path d="M21.998 24.0026H23.993V25.9974H21.998V24.0026Z" fill="currentColor"/>
<path d="M19.9902 38.0052H21.9984V40H19.9902V38.0052Z" fill="currentColor"/>
<path d="M17.9941 28.0052H23.9923V30H17.9941V28.0052Z" fill="currentColor"/>
<path d="M17.9941 35.9974H19.9891V38.0052H17.9941V35.9974Z" fill="currentColor"/>
<path d="M17.9941 24.0026H19.9891V25.9974H17.9941V24.0026Z" fill="currentColor"/>
<path d="M17.9941 6.01051H19.9891V8.00526H17.9941V6.01051Z" fill="currentColor"/>
<path d="M7.99316 8.00525H15.9994V10H7.99316V8.00525Z" fill="currentColor"/>
<path d="M9.98828 35.9974H11.9964V38.0052H9.98828V35.9974Z" fill="currentColor"/>
<path d="M13.9915 15.9974H3.99023V24.0026H13.9915V15.9974ZM9.98836 20H7.99336V22.0079H5.99836V18.0053H9.98836V20Z" fill="currentColor"/>
<path d="M7.99316 38.0052H9.98816V40H7.99316V38.0052Z" fill="currentColor"/>
<path d="M5.99805 4.00262H17.9943V6.01049H5.99805V4.00262Z" fill="currentColor"/>
<path d="M3.99023 6.01051H5.99836V8.00526H3.99023V6.01051Z" fill="currentColor"/>
<path d="M0 14.0026H1.995V31.9947H0V14.0026Z" fill="currentColor"/>
</svg>
