<svg width="24" height="24" viewBox="0 0 24 24" fill="none" xmlns="http://www.w3.org/2000/svg">
<path d="M6 6H8V8H6V6Z" fill="black"/>
<path d="M18 6L18 8L16 8L16 6L18 6Z" fill="black"/>
<path d="M7 7H9V9H7V7Z" fill="black"/>
<path d="M17 7L17 9L15 9L15 7L17 7Z" fill="black"/>
<path d="M8 8H10V10H8V8Z" fill="black"/>
<path d="M16 8L16 10L14 10L14 8L16 8Z" fill="black"/>
<path d="M9 9H11V11H9V9Z" fill="black"/>
<path d="M15 9L15 11L13 11L13 9L15 9Z" fill="black"/>
<path d="M10 10H12V12H10V10Z" fill="black"/>
<path d="M14 10L14 12L12 12L12 10L14 10Z" fill="black"/>
<path d="M11 11H13V13H11V11Z" fill="black"/>
<path d="M13 11L13 13L11 13L11 11L13 11Z" fill="black"/>
<path d="M12 12H14V14H12V12Z" fill="black"/>
<path d="M12 12L12 14L10 14L10 12L12 12Z" fill="black"/>
<path d="M13 13H15V15H13V13Z" fill="black"/>
<path d="M11 13L11 15L9 15L9 13L11 13Z" fill="black"/>
<path d="M14 14H16V16H14V14Z" fill="black"/>
<path d="M10 14L10 16L8 16L8 14L10 14Z" fill="black"/>
<path d="M15 15H17V17H15V15Z" fill="black"/>
<path d="M9 15L9 17L7 17L7 15L9 15Z" fill="black"/>
<path d="M16 16H18V18H16V16Z" fill="black"/>
<path d="M8 16L8 18L6 18L6 16L8 16Z" fill="black"/>
</svg>
