<svg viewBox="0 0 24 24" fill="none" xmlns="http://www.w3.org/2000/svg">
<path d="M10.001 24V23.0026H11.9958V21.9987H13.9973V21.0013H15.9987V19.9974H16.9962V19H18.0002V9.00001H16.9962V8.00263H15.9987V9.00001H13.9973V10.0039H11.9958V11.0013H10.001V11.9987H7.99951V13.0026H9.00024V23.0026H8.00279V24H10.001ZM13.9973 11.9987H15.9987V13.0026H13.9973V11.9987ZM10.9984 18.0026H13.0031V19.9974H11.0017L10.9984 18.0026Z" fill="black"/>
<path d="M13.9971 7.00525H15.9985V8.00263H13.9971V7.00525Z" fill="black"/>
<path d="M11.9956 6.00131H13.9971V7.00525H11.9956V6.00131Z" fill="black"/>
<path d="M10.0005 5.00393H11.9954V6.0013H10.0005V5.00393Z" fill="black"/>
<path d="M7.99951 8.00263H10.001V10.0039H7.99951V8.00263Z" fill="black"/>
<path d="M7.99951 4H10.001V5.00394H7.99951V4Z" fill="black"/>
<path d="M5.99756 21.9987H7.99901V23.0026H5.99756V21.9987Z" fill="black"/>
<path d="M5.99756 11.0013H7.99901V11.9987H5.99756V11.0013Z" fill="black"/>
<path d="M5.99756 5.00393H7.99901V6.0013H5.99756V5.00393Z" fill="black"/>
<path d="M5.99756 18.0026H7.99901V19.9974H5.99756V18.0026Z" fill="black"/>
<path d="M5.99756 14H7.99901V16.0013H5.99756V14Z" fill="black"/>
<path d="M3.99609 21.0013H5.99754V21.9987H3.99609V21.0013Z" fill="black"/>
<path d="M3.99609 10.0039H5.99754V11.0013H3.99609V10.0039Z" fill="black"/>
<path d="M3.99609 6.00131H5.99754V7.00525H3.99609V6.00131Z" fill="black"/>
<path d="M2.00195 19.9974H3.99684V21.0013H2.00195V19.9974Z" fill="black"/>
<path d="M2.00195 9H3.99684V10.0039H2.00195V9Z" fill="black"/>
<path d="M2.00195 7.00525H3.99684V8.00263H2.00195V7.00525Z" fill="black"/>
<path d="M2.00195 16.0013H3.99684V18.0026H2.00195V16.0013Z" fill="black"/>
<path d="M2.00195 11.9987H3.99684V14H2.00195V11.9987Z" fill="black"/>
<path d="M0.99707 19H2.00108V19.9974H0.99707V19Z" fill="black"/>
<path d="M0.99707 8.00263H2.00108V9.00001H0.99707V8.00263Z" fill="black"/>
<path d="M0 9H0.997443V19H0V9Z" fill="black"/>
</svg>
