<svg viewBox="0 0 42 42" fill="none" xmlns="http://www.w3.org/2000/svg">
<path d="M23 1H21L5 17L7 19L1 25V27L9 35H15L19 31L21 33L37 17V15L23 1Z" fill="white"/>
<path d="M39.9917 38.0052H41.9998V40H39.9917V38.0052Z" fill="black"/>
<path d="M35.9883 34.0026H37.9964V35.9974H35.9883V34.0026Z" fill="black"/>
<path d="M35.9883 14.0026H37.9964V18.0052H35.9883V14.0026Z" fill="black"/>
<path d="M33.9937 18.0052H35.9886V20H33.9937V18.0052Z" fill="black"/>
<path d="M33.9937 12.0079H35.9886V14.0026H33.9937V12.0079Z" fill="black"/>
<path d="M31.998 38.0052H33.993V40H31.998V38.0052Z" fill="black"/>
<path d="M31.998 20H33.993V22.0079H31.998V20Z" fill="black"/>
<path d="M31.998 10H33.993V12.0079H31.998V10Z" fill="black"/>
<path d="M29.9907 34.0026H31.9988V35.9974H29.9907V34.0026Z" fill="black"/>
<path d="M29.9907 22.0079H31.9988V24.0026H29.9907V22.0079Z" fill="black"/>
<path d="M29.9907 8.00525H31.9988V10H29.9907V8.00525Z" fill="black"/>
<path d="M27.9956 24.0026H29.9906V25.9974H27.9956V24.0026Z" fill="black"/>
<path d="M27.9956 5.99738H29.9906V8.00526H27.9956V5.99738Z" fill="black"/>
<path d="M25.9878 35.9974H27.9959V38.0053H25.9878V35.9974Z" fill="black"/>
<path d="M25.9878 25.9974H27.9959V28.0052H25.9878V25.9974Z" fill="black"/>
<path d="M25.9878 4.00262H27.9959V5.99737H25.9878V4.00262Z" fill="black"/>
<path d="M23.9922 28.0052H25.9872V30H23.9922V28.0052Z" fill="black"/>
<path d="M23.9922 14.0026H25.9872V15.9974H23.9922V14.0026Z" fill="black"/>
<path d="M23.9922 2.00787H25.9872V4.00262H23.9922V2.00787Z" fill="black"/>
<path d="M21.9976 30H23.9925V31.9947H21.9976V30Z" fill="black"/>
<path d="M19.9893 0H23.9924V2.00787H19.9893V0Z" fill="black"/>
<path d="M19.9893 31.9948H21.9974V34.0026H19.9893V31.9948Z" fill="black"/>
<path d="M19.9893 18.0052H23.9924V20H19.9893V18.0052Z" fill="black"/>
<path d="M19.9893 10H21.9974V12.0079H19.9893V10Z" fill="black"/>
<path d="M17.9941 30H19.9891V31.9947H17.9941V30Z" fill="black"/>
<path d="M17.9941 15.9974H19.9891V18.0053H17.9941V15.9974Z" fill="black"/>
<path d="M17.9941 2.00787H19.9891V4.00262H17.9941V2.00787Z" fill="black"/>
<path d="M16 31.9948H17.995V34.0026H16V31.9948Z" fill="black"/>
<path d="M16 28.0052H17.995V30H16V28.0052Z" fill="black"/>
<path d="M16 12.0079H17.995V15.9974H16V12.0079Z" fill="black"/>
<path d="M16 4.00262H17.995V5.99737H16V4.00262Z" fill="black"/>
<path d="M13.9917 25.9974H15.9998V28.0052H13.9917V25.9974Z" fill="black"/>
<path d="M13.9917 5.99738H15.9998V8.00526H13.9917V5.99738Z" fill="black"/>
<path d="M7.99308 38.0052H9.98807V40H23.9924V38.0052H19.9893V35.9974H15.9993V34.0026H7.99308V35.9974H1.99499V38.0052H0V40H7.99308V38.0052Z" fill="black"/>
<path d="M11.9966 24.0026H13.9916V25.9974H11.9966V24.0026Z" fill="black"/>
<path d="M11.9966 8.00525H13.9916V10H11.9966V8.00525Z" fill="black"/>
<path d="M9.98779 22.0079H11.9959V24.0026H9.98779V22.0079Z" fill="black"/>
<path d="M9.98779 10H11.9959V12.0079H9.98779V10Z" fill="black"/>
<path d="M7.99219 20H9.98718V22.0079H7.99219V20Z" fill="black"/>
<path d="M7.99219 12.0079H9.98718V14.0026H7.99219V12.0079Z" fill="black"/>
<path d="M5.99805 31.9948H7.99304V34.0026H5.99805V31.9948Z" fill="black"/>
<path d="M5.99805 18.0052H7.99304V20H5.99805V18.0052Z" fill="black"/>
<path d="M5.99805 14.0026H7.99304V15.9974H5.99805V14.0026Z" fill="black"/>
<path d="M3.99023 30H5.99835V31.9947H3.99023V30Z" fill="black"/>
<path d="M3.99023 20H5.99835V22.0079H3.99023V20Z" fill="black"/>
<path d="M3.99023 15.9974H5.99835V18.0053H3.99023V15.9974Z" fill="black"/>
<path d="M1.99512 28.0052H3.99011V30H1.99512V28.0052Z" fill="black"/>
<path d="M1.99512 22.0079H3.99011V24.0026H1.99512V22.0079Z" fill="black"/>
<path d="M0 24.0026H1.99499V28.0052H0V24.0026Z" fill="black"/>
</svg>
