<svg viewBox="0 0 42 42" fill="none" xmlns="http://www.w3.org/2000/svg">
<path d="M34.0068 30.0014H42V31.9959H34.0068V30.0014Z" fill="currentColor"/>
<path d="M36.0024 17.9952H37.9974V21.9972H36.0024V17.9952Z" fill="currentColor"/>
<path d="M36.0024 10.0041V11.9986H40.0056V7.99655H37.9974V10.0041H36.0024Z" fill="currentColor"/>
<path d="M36.0024 6.00207H37.9974V7.99654H36.0024V6.00207Z" fill="currentColor"/>
<path d="M34.0068 21.9972H36.0018V23.9917H34.0068V21.9972Z" fill="currentColor"/>
<path d="M34.0068 16.0007H36.0018V17.9952H34.0068V16.0007Z" fill="currentColor"/>
<path d="M24.0063 7.99655H36.0026V10.0041H24.0063V7.99655Z" fill="currentColor"/>
<path d="M34.0068 4.00759H36.0018V6.00207H34.0068V4.00759Z" fill="currentColor"/>
<path d="M31.998 31.9959H34.0062V33.9903H31.998V31.9959Z" fill="currentColor"/>
<path d="M31.998 20.0028H34.0062V21.9972H31.998V20.0028Z" fill="currentColor"/>
<path d="M31.998 14.0062H34.0062V16.0007H31.998V14.0062Z" fill="currentColor"/>
<path d="M28.0088 17.9952H31.9988V20.0028H28.0088V17.9952Z" fill="currentColor"/>
<path d="M30.0039 25.9993H28.0089V21.9972H26.0008V20.0028H24.0058V17.9952H21.9976V16.0007H15.9995V20.0028H18.0076V23.9917H20.0026V27.9938H21.9976V37.9924H20.0026V40H34.007V37.9924H31.9989V33.9903H30.0039V25.9993ZM26.0008 37.9924H24.0058V33.9903H26.0008V37.9924ZM26.0008 30.0014H24.0058V25.9993H21.9976V21.9972H20.0026V20.0028H21.9976V21.9972H24.0058V25.9993H26.0008V30.0014Z" fill="currentColor"/>
<path d="M24.0063 16.0007H28.0095V17.9952H24.0063V16.0007Z" fill="currentColor"/>
<path d="M21.998 2H34.0074V4.0076H21.998V2Z" fill="currentColor"/>
<path d="M21.998 14.0062H31.9993V11.9986H24.0062V10.0042H21.998V14.0062Z" fill="currentColor"/>
<path d="M20.002 4.00759H21.997V6.00207H20.002V4.00759Z" fill="currentColor"/>
<path d="M11.9961 31.9959H20.0023V33.9903H11.9961V31.9959Z" fill="currentColor"/>
<path d="M18.0073 6.00207H20.0023V7.99654H18.0073V6.00207Z" fill="currentColor"/>
<path d="M15.9995 7.99655H18.0076V10.0041H15.9995V7.99655Z" fill="currentColor"/>
<path d="M14.0044 20.0028H15.9994V25.9993H14.0044V20.0028Z" fill="currentColor"/>
<path d="M14.0044 6.00207H15.9994V7.99654H14.0044V6.00207Z" fill="currentColor"/>
<path d="M11.9961 25.9993H14.0042V27.9938H11.9961V25.9993Z" fill="currentColor"/>
<path d="M11.997 20.0028H14.0051V16.0007H10.002V17.9952H11.997V20.0028Z" fill="currentColor"/>
<path d="M10.002 33.9903H11.997V35.9979H10.002V33.9903Z" fill="currentColor"/>
<path d="M10.002 27.9938H11.997V30.0014H10.002V27.9938Z" fill="currentColor"/>
<path d="M10.002 20.0028H11.997V21.9972H10.002V20.0028Z" fill="currentColor"/>
<path d="M5.99756 11.9986V14.0062H14.0038V10.0042H11.9957V11.9986H5.99756Z" fill="currentColor"/>
<path d="M8.00586 21.9972H10.0009V27.9938H8.00586V21.9972Z" fill="currentColor"/>
<path d="M8.00586 17.9952H10.0009V20.0028H8.00586V17.9952Z" fill="currentColor"/>
<path d="M5.99756 7.99655H11.9957V10.0041H5.99756V7.99655Z" fill="currentColor"/>
<path d="M2.0083 35.9979H10.0014V37.9924H2.0083V35.9979Z" fill="currentColor"/>
<path d="M5.99756 20.0028H8.00568V21.9972H5.99756V20.0028Z" fill="currentColor"/>
<path d="M4.00342 4.00759H14.0047V6.00207H4.00342V4.00759Z" fill="currentColor"/>
<path d="M4.00342 21.9972H5.99842V25.9993H4.00342V21.9972Z" fill="currentColor"/>
<path d="M4.00342 14.0062H5.99842V16.0007H4.00342V14.0062Z" fill="currentColor"/>
<path d="M4.00342 10.0042H5.99842V11.9986H4.00342V10.0042Z" fill="currentColor"/>
<path d="M2.0083 25.9993H4.0033V27.9938H2.0083V25.9993Z" fill="currentColor"/>
<path d="M2.0083 16.0007H4.0033V17.9952H2.0083V16.0007Z" fill="currentColor"/>
<path d="M2.0083 11.9986H4.0033V14.0062H2.0083V11.9986Z" fill="currentColor"/>
<path d="M2.0083 6.00207H4.0033V7.99654H2.0083V6.00207Z" fill="currentColor"/>
<path d="M0 37.9924H2.00812V40H0V37.9924Z" fill="currentColor"/>
<path d="M0 17.9952H2.00812V25.9993H0V17.9952Z" fill="currentColor"/>
<path d="M0 7.99655H2.00812V11.9986H0V7.99655Z" fill="currentColor"/>
</svg>
