<svg viewBox="0 0 42 42" fill="none" xmlns="http://www.w3.org/2000/svg">
<path d="M40.0054 26.0006H42.0004V40.005H40.0054V26.0006Z" fill="currentColor"/>
<path d="M2.0083 40.005H40.0048V42H2.0083V40.005Z" fill="currentColor"/>
<path d="M34.0062 31.9988H31.998V34.0069H36.0011V30.0038H34.0062V31.9988Z" fill="currentColor"/>
<path d="M31.998 36.0019H36.0011V38.01H31.998V36.0019Z" fill="currentColor"/>
<path d="M30.0039 28.0088H31.9989V30.0038H30.0039V28.0088Z" fill="currentColor"/>
<path d="M30.0039 14.0044H31.9989V15.9994H30.0039V14.0044Z" fill="currentColor"/>
<path d="M27.9956 31.9988H30.0037V34.0069H27.9956V31.9988Z" fill="currentColor"/>
<path d="M27.9956 15.9994H30.0037V18.0075H27.9956V15.9994Z" fill="currentColor"/>
<path d="M27.9956 12.0094H30.0037V14.0044H27.9956V12.0094Z" fill="currentColor"/>
<path d="M11.9961 36.0019H30.0034V38.01H11.9961V36.0019Z" fill="currentColor"/>
<path d="M26 28.0088H27.995V30.0038H26V28.0088Z" fill="currentColor"/>
<path d="M8.00635 10.0013H27.9955V12.0094H8.00635V10.0013Z" fill="currentColor"/>
<path d="M24.0059 31.9988H26.0008V34.0069H24.0059V31.9988Z" fill="currentColor"/>
<path d="M24.0059 0H26.0008V4.00313H24.0059V0Z" fill="currentColor"/>
<path d="M21.9976 28.0088H24.0057V30.0038H21.9976V28.0088Z" fill="currentColor"/>
<path d="M20.002 31.9988H21.9969V34.0069H20.002V31.9988Z" fill="currentColor"/>
<path d="M18.0073 28.0088H20.0023V30.0038H18.0073V28.0088Z" fill="currentColor"/>
<path d="M15.9995 18.0075H27.9956V20.0025H15.9995V18.0075Z" fill="currentColor"/>
<path d="M15.9995 31.9988H18.0076V34.0069H15.9995V31.9988Z" fill="currentColor"/>
<path d="M14.0039 28.0088H15.9989V30.0038H14.0039V28.0088Z" fill="currentColor"/>
<path d="M11.9961 31.9988H14.0042V34.0069H11.9961V31.9988Z" fill="currentColor"/>
<path d="M10.0015 28.0088H11.9964V30.0038H10.0015V28.0088Z" fill="currentColor"/>
<path d="M8.00635 4.00311H24.0056V6.01124H8.00635V4.00311Z" fill="currentColor"/>
<path d="M8.00635 31.9988H10.0013V34.0069H8.00635V31.9988Z" fill="currentColor"/>
<path d="M5.99805 36.0019H10.0011V38.01H5.99805V36.0019Z" fill="currentColor"/>
<path d="M5.99805 28.0088H8.00615V30.0038H5.99805V28.0088Z" fill="currentColor"/>
<path d="M5.99805 6.01126H8.00615V10.0013H5.99805V6.01126Z" fill="currentColor"/>
<path d="M4.00342 31.9988H5.9984V34.0069H4.00342V31.9988Z" fill="currentColor"/>
<path d="M40.0048 26.0006V24.0056H15.9994V20.0025H14.0044V24.0056H2.0083V26.0006H40.0048Z" fill="currentColor"/>
<path d="M0 26.0006H2.00811V40.005H0V26.0006Z" fill="currentColor"/>
</svg>
