<svg viewBox="0 0 42 42" fill="none" xmlns="http://www.w3.org/2000/svg">
<path d="M15.0018 21.9975V24.0056H22.9953V21.9975H25.0035V24.0056H32.9969V21.9975H35.0051V36.0019H37.0002V14.0044H35.0051V12.0094H32.9969V10.0012H31.0018V8.00625H25.0035V4.00312H22.9953V8.00625H16.9969V10.0012H15.0018V12.0094H12.9936V14.0044H10.9985V36.0019H12.9936V21.9975H15.0018ZM21.0002 12.0094H22.9953V10.0012H25.0035V12.0094H26.9985V15.9994H25.0035V18.0075H22.9953V15.9994H21.0002V12.0094Z" fill="currentColor"/>
<path d="M32.9971 36.0019H35.0053V38.01H32.9971V36.0019Z" fill="currentColor"/>
<path d="M31.0015 30.0038H32.9965V34.0069H31.0015V30.0038Z" fill="currentColor"/>
<path d="M28.9932 38.01H32.9964V40.005H28.9932V38.01Z" fill="currentColor"/>
<path d="M28.9932 34.0069H31.0014V36.0019H28.9932V34.0069Z" fill="currentColor"/>
<path d="M25.0029 36.0019H28.9931V38.01H25.0029V36.0019Z" fill="currentColor"/>
<path d="M18.9922 40.005H28.9938V42H18.9922V40.005Z" fill="currentColor"/>
<path d="M18.9922 2.00812H22.9955V4.00312H18.9922V2.00812Z" fill="currentColor"/>
<path d="M15.002 38.01H18.9921V40.005H15.002V38.01Z" fill="currentColor"/>
<path d="M15.002 4.00312H18.9921V5.99812H15.002V4.00312Z" fill="currentColor"/>
<path d="M12.9932 36.0019H15.0014V38.01H12.9932V36.0019Z" fill="currentColor"/>
<path d="M12.9932 5.99813H15.0014V8.00625H12.9932V5.99813Z" fill="currentColor"/>
<path d="M6.99463 8.00625H12.993V10.0012H6.99463V8.00625Z" fill="currentColor"/>
<path d="M9.00391 0H10.999V2.00813H9.00391V0Z" fill="currentColor"/>
<path d="M6.99463 2.00812H9.00283V4.00312H6.99463V2.00812Z" fill="currentColor"/>
<path d="M5 4.00312H6.99508V8.00625H5V4.00312Z" fill="currentColor"/>
</svg>
