<svg viewBox="0 0 42 42" fill="none" xmlns="http://www.w3.org/2000/svg">
<path d="M34.0095 14.0026H38.0002V10H36.0048V7.99213H32.001V11.9948H34.0095V14.0026Z" fill="currentColor"/>
<path d="M34.0093 17.9921H36.0046V31.9947H34.0093V17.9921Z" fill="currentColor"/>
<path d="M32.001 31.9947H34.0095V35.9974H32.001V31.9947Z" fill="currentColor"/>
<path d="M32.001 14.0026H34.0095V17.9921H32.001V14.0026Z" fill="currentColor"/>
<path d="M30.0054 27.9921H32.0007V30H30.0054V27.9921Z" fill="currentColor"/>
<path d="M30.0054 23.9895H32.0007V25.9974H30.0054V23.9895Z" fill="currentColor"/>
<path d="M30.0054 20H32.0007V21.9948H30.0054V20Z" fill="currentColor"/>
<path d="M28.0103 35.9974H32.001V37.9921H28.0103V35.9974Z" fill="currentColor"/>
<path d="M28.0103 31.9947H30.0056V33.9895H28.0103V31.9947Z" fill="currentColor"/>
<path d="M28.0103 15.9974H30.0056V17.9921H28.0103V15.9974Z" fill="currentColor"/>
<path d="M28.0103 11.9947H32.001V14.0026H28.0103V11.9947Z" fill="currentColor"/>
<path d="M28.0103 1.99474H30.0056V5.99736H28.0103V1.99474Z" fill="currentColor"/>
<path d="M18.0068 25.9974H20.0022V27.9921H21.9976V25.9974H28.0099V23.9895H21.9976V20H20.0022V23.9895H18.0068V25.9974Z" fill="currentColor"/>
<path d="M14.0034 37.9921H28.0104V40H14.0034V37.9921Z" fill="currentColor"/>
<path d="M24.0063 33.9895H26.0017V35.9974H24.0063V33.9895Z" fill="currentColor"/>
<path d="M24.0063 14.0026H26.0017V15.9974H24.0063V14.0026Z" fill="currentColor"/>
<path d="M20.0024 33.9895H21.9978V35.9974H20.0024V33.9895Z" fill="currentColor"/>
<path d="M20.0024 14.0026H21.9978V15.9974H20.0024V14.0026Z" fill="currentColor"/>
<path d="M15.9985 33.9895H18.007V35.9974H15.9985V33.9895Z" fill="currentColor"/>
<path d="M15.9985 14.0026H18.007V15.9974H15.9985V14.0026Z" fill="currentColor"/>
<path d="M28.0104 11.9947V10H24.0065V7.99213H28.0104V5.99737H26.0019V1.99475H28.0104V0H14.0034V1.99475H15.9988V5.99737H14.0034V7.99213H18.0073V10H14.0034V11.9947H28.0104ZM21.998 1.99475H24.0065V5.99737H21.998V1.99475ZM21.998 10H20.0026V7.99213H21.998V10ZM18.0073 1.99475H20.0026V5.99737H18.0073V1.99475Z" fill="currentColor"/>
<path d="M9.99902 35.9974H14.0029V37.9921H9.99902V35.9974Z" fill="currentColor"/>
<path d="M12.0078 31.9947H14.0032V33.9895H12.0078V31.9947Z" fill="currentColor"/>
<path d="M12.0078 15.9974H14.0032V17.9921H12.0078V15.9974Z" fill="currentColor"/>
<path d="M12.0078 1.99474H14.0032V5.99736H12.0078V1.99474Z" fill="currentColor"/>
<path d="M9.99902 27.9921H12.0075V30H9.99902V27.9921Z" fill="currentColor"/>
<path d="M9.99902 23.9895H12.0075V25.9974H9.99902V23.9895Z" fill="currentColor"/>
<path d="M9.99902 20H12.0075V21.9948H9.99902V20Z" fill="currentColor"/>
<path d="M9.99902 11.9947H14.0029V14.0026H9.99902V11.9947Z" fill="currentColor"/>
<path d="M8.00342 31.9947H9.99878V35.9974H8.00342V31.9947Z" fill="currentColor"/>
<path d="M8.00342 14.0026H9.99878V17.9921H8.00342V14.0026Z" fill="currentColor"/>
<path d="M5.99537 7.99213V10H4V14.0026H8.00386V11.9948H9.99923V7.99213H5.99537Z" fill="currentColor"/>
<path d="M5.99561 17.9921H8.0041V31.9947H5.99561V17.9921Z" fill="currentColor"/>
</svg>
