<svg viewBox="0 0 42 42" fill="none" xmlns="http://www.w3.org/2000/svg">
<rect x="7" y="7" width="28" height="28" fill="white"/>
<path d="M37.9966 4.00312H41.9997V5.99812H37.9966V4.00312Z" fill="black"/>
<path d="M37.9966 36.0019H41.9997V37.9969H37.9966V36.0019Z" fill="black"/>
<path d="M36.002 0H37.997V4.00312H36.002V0Z" fill="black"/>
<path d="M36.002 37.9969H37.997V42H36.002V37.9969Z" fill="black"/>
<path d="M36.0018 5.99813H5.99805V36.0019H36.0018V5.99813ZM34.0068 34.0069H8.00617V8.00626H34.0068V34.0069Z" fill="black"/>
<path d="M18.0078 31.9987H31.9991V17.9944H18.0078V31.9987ZM20.0028 20.0025H30.0041V30.0038H20.0028V20.0025Z" fill="black"/>
<path d="M12.0096 24.0056H14.0046V26.0006H15.9996V15.9994H26.0008V14.0044H24.0058V11.9963H21.9977V10.0013H14.0046V11.9963H12.0096V14.0044H10.0015V21.9975H12.0096V24.0056Z" fill="black"/>
<path d="M4.00342 0H5.99842V4.00312H4.00342V0Z" fill="black"/>
<path d="M4.00342 37.9969H5.99842V42H4.00342V37.9969Z" fill="black"/>
<path d="M0 4.00312H4.00313V5.99812H0V4.00312Z" fill="black"/>
<path d="M0 36.0019H4.00313V37.9969H0V36.0019Z" fill="black"/>
</svg>
