<svg viewBox="0 0 42 42" fill="none" xmlns="http://www.w3.org/2000/svg">
<path d="M39.9917 20.0025H41.9998V21.9975H39.9917V20.0025Z" fill="currentColor"/>
<path d="M37.9966 21.9975H39.9916V24.0056H37.9966V21.9975Z" fill="currentColor"/>
<path d="M37.9966 17.9944H39.9916V20.0025H37.9966V17.9944Z" fill="currentColor"/>
<path d="M35.9888 24.0056H37.9969V26.0006H35.9888V24.0056Z" fill="currentColor"/>
<path d="M35.9888 15.9994H37.9969V17.9944H35.9888V15.9994Z" fill="currentColor"/>
<path d="M33.9941 26.0006H35.9891V27.9956H33.9941V26.0006Z" fill="currentColor"/>
<path d="M33.9941 14.0044H35.9891V15.9994H33.9941V14.0044Z" fill="currentColor"/>
<path d="M31.9985 27.9956H33.9935V30.0038H31.9985V27.9956Z" fill="currentColor"/>
<path d="M31.9985 11.9962H33.9935V14.0044H31.9985V11.9962Z" fill="currentColor"/>
<path d="M29.9902 14.0044H31.9984V27.9956H29.9902V14.0044Z" fill="currentColor"/>
<path d="M27.9956 31.9988H29.9906V33.9938H27.9956V31.9988Z" fill="currentColor"/>
<path d="M27.9956 7.99313H29.9906V10.0013H27.9956V7.99313Z" fill="currentColor"/>
<path d="M25.9878 33.9937H27.9959V36.0019H25.9878V33.9937Z" fill="currentColor"/>
<path d="M25.9878 5.99812H27.9959V7.99312H25.9878V5.99812Z" fill="currentColor"/>
<path d="M23.9927 36.0019H25.9877V37.9969H23.9927V36.0019Z" fill="currentColor"/>
<path d="M13.9922 10.0012H27.9966V11.9962H13.9922V10.0012Z" fill="currentColor"/>
<path d="M23.9927 4.00313H25.9877V5.99813H23.9927V4.00313Z" fill="currentColor"/>
<path d="M21.9976 37.9969H23.9926V40.005H21.9976V37.9969Z" fill="currentColor"/>
<path d="M21.9976 1.995H23.9926V4.00312H21.9976V1.995Z" fill="currentColor"/>
<path d="M19.9893 40.005H21.9974V42H19.9893V40.005Z" fill="currentColor"/>
<path d="M19.9893 0H21.9974V1.995H19.9893V0Z" fill="currentColor"/>
<path d="M17.9941 37.9969H19.9891V40.005H17.9941V37.9969Z" fill="currentColor"/>
<path d="M23.9921 26.0006V24.0056H25.9871V17.9944H23.9921V15.9994H17.994V17.9944H15.999V24.0056H17.994V26.0006H23.9921Z" fill="currentColor"/>
<path d="M17.9941 1.995H19.9891V4.00312H17.9941V1.995Z" fill="currentColor"/>
<path d="M15.999 36.0019H17.994V37.9969H15.999V36.0019Z" fill="currentColor"/>
<path d="M13.9922 30.0038H27.9966V31.9987H13.9922V30.0038Z" fill="currentColor"/>
<path d="M15.999 4.00313H17.994V5.99813H15.999V4.00313Z" fill="currentColor"/>
<path d="M13.9922 33.9937H16.0003V36.0019H13.9922V33.9937Z" fill="currentColor"/>
<path d="M13.9922 5.99812H16.0003V7.99312H13.9922V5.99812Z" fill="currentColor"/>
<path d="M11.9961 31.9988H13.9911V33.9938H11.9961V31.9988Z" fill="currentColor"/>
<path d="M11.9961 7.99313H13.9911V10.0013H11.9961V7.99313Z" fill="currentColor"/>
<path d="M9.98828 14.0044H11.9964V27.9956H9.98828V14.0044Z" fill="currentColor"/>
<path d="M7.99219 27.9956H9.98719V30.0038H7.99219V27.9956Z" fill="currentColor"/>
<path d="M7.99219 11.9962H9.98719V14.0044H7.99219V11.9962Z" fill="currentColor"/>
<path d="M5.99805 26.0006H7.99305V27.9956H5.99805V26.0006Z" fill="currentColor"/>
<path d="M5.99805 14.0044H7.99305V15.9994H5.99805V14.0044Z" fill="currentColor"/>
<path d="M3.99023 24.0056H5.99836V26.0006H3.99023V24.0056Z" fill="currentColor"/>
<path d="M3.99023 15.9994H5.99836V17.9944H3.99023V15.9994Z" fill="currentColor"/>
<path d="M1.99512 21.9975H3.99012V24.0056H1.99512V21.9975Z" fill="currentColor"/>
<path d="M1.99512 17.9944H3.99012V20.0025H1.99512V17.9944Z" fill="currentColor"/>
<path d="M0 20.0025H1.995V21.9975H0V20.0025Z" fill="currentColor"/>
</svg>
