<svg viewBox="0 0 42 42" fill="none" xmlns="http://www.w3.org/2000/svg">
<path d="M26 10H16L14 12H12L10 14H8L2 20V22L8 28H10L12 30H14L16 32H26L28 30H30L32 28H34L40 22V20L34 14H32L30 12H28L26 10Z" fill="white"/>
<path d="M38.9922 18.9989H41.0001V23.0011H38.9922V18.9989Z" fill="black"/>
<path d="M36.9976 23.0011H38.9923V24.9956H36.9976V23.0011Z" fill="black"/>
<path d="M36.9976 17.0044H38.9923V18.9989H36.9976V17.0044Z" fill="black"/>
<path d="M35.0034 24.9956H36.9982V27.0033H35.0034V24.9956Z" fill="black"/>
<path d="M35.0034 14.9967H36.9982V17.0044H35.0034V14.9967Z" fill="black"/>
<path d="M31.0005 27.0033H35.0031V28.9978H31.0005V27.0033Z" fill="black"/>
<path d="M31.0005 13.0022H35.0031V14.9967H31.0005V13.0022Z" fill="black"/>
<path d="M26.9971 28.9978H30.9997V30.9923H26.9971V28.9978Z" fill="black"/>
<path d="M26.9971 17.0044H28.9918V24.9956H26.9971V17.0044Z" fill="black"/>
<path d="M26.9971 11.0077H30.9997V13.0022H26.9971V11.0077Z" fill="black"/>
<path d="M25.0029 24.9956H26.9977V27.0033H25.0029V24.9956Z" fill="black"/>
<path d="M25.0029 14.9967H26.9977V17.0044H25.0029V14.9967Z" fill="black"/>
<path d="M15.0024 30.9923H26.9972V33H15.0024V30.9923Z" fill="black"/>
<path d="M16.9976 27.0033H25.0028V28.9978H16.9976V27.0033Z" fill="black"/>
<path d="M22.995 17.0044H19.0054V18.9989H16.9976V23.0011H19.0054V24.9956H22.995V23.0011H25.0028V18.9989H22.995V17.0044Z" fill="black"/>
<path d="M16.9976 13.0022H25.0028V14.9967H16.9976V13.0022Z" fill="black"/>
<path d="M15.0024 9H26.9972V11.0077H15.0024V9Z" fill="black"/>
<path d="M15.0024 24.9956H16.9972V27.0033H15.0024V24.9956Z" fill="black"/>
<path d="M15.0024 14.9967H16.9972V17.0044H15.0024V14.9967Z" fill="black"/>
<path d="M11.0005 28.9978H15.0031V30.9923H11.0005V28.9978Z" fill="black"/>
<path d="M12.9946 17.0044H15.0025V24.9956H12.9946V17.0044Z" fill="black"/>
<path d="M11.0005 11.0077H15.0031V13.0022H11.0005V11.0077Z" fill="black"/>
<path d="M6.99707 27.0033H10.9997V28.9978H6.99707V27.0033Z" fill="black"/>
<path d="M6.99707 13.0022H10.9997V14.9967H6.99707V13.0022Z" fill="black"/>
<path d="M5.00342 24.9956H6.99818V27.0033H5.00342V24.9956Z" fill="black"/>
<path d="M5.00342 14.9967H6.99818V17.0044H5.00342V14.9967Z" fill="black"/>
<path d="M3.00732 23.0011H5.00208V24.9956H3.00732V23.0011Z" fill="black"/>
<path d="M3.00732 17.0044H5.00208V18.9989H3.00732V17.0044Z" fill="black"/>
<path d="M1 18.9989H3.00788V23.0011H1V18.9989Z" fill="black"/>
</svg>
