<svg viewBox="0 0 24 24" fill="none" xmlns="http://www.w3.org/2000/svg">
<path d="M8.00098 16.996H16.0007V18H8.00098V16.996Z" fill="black"/>
<path d="M7.00293 15.9985H8.00043V16.996H7.00293V15.9985Z" fill="black"/>
<path d="M7.00313 11.9956H10.0022V10.9982H9.00469V10.0007H8.00062V8.99672H7.00313V7.99927H6.00562V8.99672H5.00156V10.0007H4.00406V10.9982H3V11.9956H6.00562V15.9985H7.00313V11.9956Z" fill="black"/>
<path d="M21.001 5.99782V2.00146H20.0035V5.99782H17.0044V6.99526H18.0019V7.99927H19.006V8.99672H20.0035V10.0007H21.001V8.99672H22.005V7.99927H23.0025V6.99526H24V5.99782H21.001Z" fill="black"/>
<path d="M19.0059 0.997448H20.0034V2.00146H19.0059V0.997448Z" fill="black"/>
<path d="M11 0H19.0062V0.997448H11V0Z" fill="black"/>
</svg>
