<svg viewBox="0 0 42 42" fill="none" xmlns="http://www.w3.org/2000/svg">
<path d="M33.9917 27.9956H36.0001V37.9969H33.9917V27.9956Z" fill="currentColor"/>
<path d="M31.9961 37.9969H33.9914V40.005H31.9961V37.9969Z" fill="currentColor"/>
<path d="M31.9961 26.0006H33.9914V27.9956H31.9961V26.0006Z" fill="currentColor"/>
<path d="M30.001 40.005H31.9963V42H30.001V40.005Z" fill="currentColor"/>
<path d="M30.001 24.0056H31.9963V26.0006H30.001V24.0056Z" fill="currentColor"/>
<path d="M30.0009 24.0056V21.9975H21.9934V14.0044H19.998V24.0056H30.0009Z" fill="currentColor"/>
<path d="M27.9927 4.00312H30.0011V5.99812H27.9927V4.00312Z" fill="currentColor"/>
<path d="M25.9971 26.0006H27.9924V31.9987H25.9971V26.0006Z" fill="currentColor"/>
<path d="M25.9971 5.99813H27.9924V8.00626H25.9971V5.99813Z" fill="currentColor"/>
<path d="M24.002 8.00626H25.9973V10.0013H24.002V8.00626Z" fill="currentColor"/>
<path d="M19.998 26.0006H21.9934V31.9987H19.998V26.0006Z" fill="currentColor"/>
<path d="M15.9941 11.9962H19.9979V14.0044H15.9941V11.9962Z" fill="currentColor"/>
<path d="M17.9897 0H19.9982V5.99812H17.9897V0Z" fill="currentColor"/>
<path d="M13.999 37.9969H15.9943V42H13.999V37.9969Z" fill="currentColor"/>
<path d="M13.9989 30.0037H15.9942V14.0044H13.9989V24.0056H9.99512V26.0006H13.9989V30.0037Z" fill="currentColor"/>
<path d="M11.9907 36.0019H13.9992V37.9969H11.9907V36.0019Z" fill="currentColor"/>
<path d="M11.9907 8.00626H13.9992V10.0013H11.9907V8.00626Z" fill="currentColor"/>
<path d="M9.99512 34.0069H11.9904V36.0019H9.99512V34.0069Z" fill="currentColor"/>
<path d="M9.99512 5.99813H11.9904V8.00626H9.99512V5.99813Z" fill="currentColor"/>
<path d="M8 26.0006H9.99531V34.0069H8V26.0006Z" fill="currentColor"/>
<path d="M8 4.00312H9.99531V5.99812H8V4.00312Z" fill="currentColor"/>
</svg>
